<svg width="488" height="421" viewBox="0 0 488 421" fill="none" xmlns="http://www.w3.org/2000/svg">
<path d="M368.527 61.5625C475.369 156.464 491.849 237.062 486.704 265.509C463.873 392.634 363.865 415.857 333.959 417.545C294.406 419.714 230.896 416.821 189.092 417.946C74.6941 424.455 28.3078 360.25 19.4647 327.384C-35.202 192.866 41.4118 89.2857 86.5922 54.3303C202.598 -46.3572 322.945 17.2053 368.527 61.5625Z" fill="#F7BC28"/>
<path d="M184.429 163.777C190.057 151.482 197.051 139.911 203.965 128.339L261.847 32.3124C267.073 23.7142 275.112 13.8303 284.437 14.6339C285.724 14.7946 286.769 15.9196 286.608 17.2856C286.608 17.4464 286.527 17.6071 286.527 17.8481C281.865 31.5089 274.067 43.9642 263.857 54.1696C261.445 56.4999 258.631 58.1071 258.229 59.3124C257.988 60.116 254.853 68.7946 253.727 72.4106C240.543 113.232 228.082 146.5 222.133 160.723" fill="#FFC9A0"/>
<path d="M227.68 154.214C221.169 173.902 219.078 184.268 208.949 189.893L155.327 210.062C164.01 193.509 174.863 170.527 184.912 154.777L227.68 154.214Z" fill="#307549"/>
<path d="M175.827 164.902C193.112 164.259 210.396 164.5 227.6 165.705C228.886 165.705 230.012 164.58 230.012 163.295C229.931 162.009 228.886 160.964 227.6 160.884C210.396 159.678 193.112 159.437 175.827 160.08C172.692 160.161 172.692 165.062 175.827 164.902Z" fill="#153A23"/>
<path d="M181.455 201.062C178.963 190.054 179.284 175.75 186.922 163.696C188.61 161.045 185.957 159.277 184.51 162.009C177.918 174.464 174.139 176.795 173.978 202.509C173.978 205.643 177.274 205.482 177.194 202.348L181.455 201.062Z" fill="#153A23"/>
<path d="M191.665 195.036C195.684 184.509 199.543 173.259 204.206 162.973C204.769 161.768 205.01 161.286 203.723 160.482C202.518 159.839 201.071 160.241 200.347 161.366C193.835 173.098 192.469 189.33 186.922 193.75C185.876 194.554 187.404 196.402 188.61 196.804C189.896 197.045 191.263 196.321 191.665 195.036Z" fill="#153A23"/>
<path d="M199.945 196.08C201.553 193.75 204.125 192.304 206.216 190.536C208.547 188.607 207.422 185.634 209.431 183.384C212.969 179.527 216.265 174.946 219.239 165.062C220.123 162.009 214.094 160.643 213.531 163.777C211.843 173.018 210.155 175.83 207.261 181.295C205.974 183.786 204.125 185.955 201.955 187.643C199.623 189.491 197.372 191.098 195.684 193.589C195.041 194.795 195.443 196.241 196.569 196.964C197.774 197.607 199.302 197.205 199.945 196.08Z" fill="#153A23"/>
<path d="M158.302 244.937C132.255 245.5 85.3863 236.098 59.3392 235.938C42.9392 235.777 31.6039 239.714 10.5412 226.857C8.29021 225.571 6.2804 223.964 4.67256 221.955C3.70785 220.67 4.91373 218.741 6.36079 219.304C20.9922 225.571 38.598 215.607 53.551 221.634C64.4843 226.054 125.663 220.911 160.875 213.116" fill="#FFC9A0"/>
<path d="M420.139 117.17C405.99 145.054 390.796 172.455 374.637 199.295C364.347 188.446 361.212 186.036 348.429 174.063L349.475 234.089L371.422 246.545C375.682 248.955 380.184 251.446 385.088 251.286C395.459 250.964 401.569 239.714 405.186 229.991C417.486 196.884 426.812 157.83 432.922 123.036L420.139 117.17Z" fill="#FFC9A0"/>
<path d="M275.755 271.536C279.533 316.857 281.302 348.598 283.874 404.446C288.135 404.205 296.335 404.607 300.435 405.652C305.42 368.205 311.931 309.866 316.755 270.652L275.755 271.536Z" fill="#FFC9A0"/>
<path d="M160.473 204.036C199.302 185.554 240.945 168.839 282.347 157.107C282.106 187.804 281.141 205.723 281.302 245.018C243.276 245.259 205.331 243.411 167.547 239.554L160.473 204.036Z" fill="#39B55D"/>
<path d="M349.475 234.089C342.159 229.911 331.869 222.92 322.784 217.536C319.649 239.554 319.81 248.795 316.755 270.732C304.133 270.732 288.377 271.455 275.755 271.536L275.514 159.116C298.747 149.714 326.402 151.964 348.51 174.062L349.475 234.089Z" fill="#153A23"/>
<path d="M166.582 237.625C180.973 237.705 188.529 237.143 202.92 237.866C213.371 238.428 225.269 238.268 252.522 239.795C262.41 240.357 274.308 240.036 284.196 240.036C287.331 240.036 287.331 232.241 284.196 232.241C267.474 232.241 250.753 234.893 234.031 234.411C219.802 234.009 205.492 233.446 191.263 233.125C182.982 232.884 174.782 232.803 166.502 232.723C163.447 232.723 163.367 237.625 166.582 237.625Z" fill="#153A23"/>
<path d="M151.469 224.045C170.602 224.687 189.655 223.402 208.788 222.759C226.957 222.196 246.171 223.241 264.259 222.277C272.218 221.875 283.231 217.536 287.251 220.107C289.904 221.795 290.386 217.295 287.251 217.214C273.986 216.571 255.174 217.857 239.578 218.58C220.445 219.464 202.276 219.303 183.063 219.464C172.531 219.545 162 219.545 151.469 219.223C148.333 219.062 148.333 223.964 151.469 224.045Z" fill="#153A23"/>
<path d="M148.414 209.259C166.422 209.339 178.561 214.08 196.327 211.187C213.853 208.295 232.504 207.25 258.149 207.089C268.278 207.009 276.398 204.598 286.527 203.795C287.814 203.714 288.939 202.67 288.939 201.303C288.939 200.098 287.814 198.491 286.527 198.893C281.543 200.178 260.32 203.875 232.584 202.428C214.657 201.545 189.333 206.125 171.406 206.446C161.276 206.607 158.543 204.437 148.414 204.357C145.278 204.437 145.278 209.259 148.414 209.259Z" fill="#153A23"/>
<path d="M168.029 193.027C198.82 191.902 226.957 193.107 257.747 191.339C266.51 190.857 277.845 188.045 286.608 187.402C287.974 187.402 289.02 186.277 289.02 184.911C289.02 183.545 287.894 182.5 286.608 182.5C255.898 184.589 228.565 188.446 194.237 187.08C185.475 186.759 176.712 187.723 167.949 188.045C164.894 188.286 164.814 193.188 168.029 193.027Z" fill="#153A23"/>
<path d="M216.345 173.821C237.327 173.902 258.39 173.339 279.373 172.134C285.241 171.812 291.19 171.411 297.059 170.929C298.425 170.929 299.471 169.804 299.471 168.518C299.471 167.152 298.345 166.107 297.059 166.027C276.076 167.634 255.094 168.598 234.112 168.839C228.163 168.92 222.294 168.92 216.345 168.92C213.129 169 213.129 173.821 216.345 173.821Z" fill="#153A23"/>
<path d="M44.5471 148.268C42.2961 149.071 40.3667 150.437 39 152.366C35.8647 156.545 35.9451 165.384 41.6529 168.036C45.1902 169.723 51.702 170.366 54.6765 167.795C57.1686 165.786 59.098 163.134 60.2235 160.08" fill="#32142A"/>
<path d="M69.3079 182.5L79.7588 189.009C80.0804 189.17 80.402 189.411 80.6432 189.732C80.8843 190.134 80.9647 190.616 80.9647 191.098L81.3667 204.839C81.4471 205.321 81.3667 205.884 81.0451 206.286C80.8039 206.527 80.402 206.768 80.0804 206.848C76.1412 208.134 72.202 209.339 68.1824 210.384L69.3079 182.5Z" fill="#E48929"/>
<path d="M70.3529 171.25C70.8353 186.277 70.5941 201.384 69.549 216.411C69.4686 217.455 69.3078 218.661 68.5039 219.464C67.7 220.268 66.4137 220.268 65.2078 220.268C45.2706 220.348 25.3333 220.429 5.39609 220.348C4.83334 220.429 4.1902 220.268 3.70785 219.946C3.38628 219.545 3.14511 219.063 3.14511 218.5C0.813734 203.152 0.572558 187.482 2.42158 172.054L70.3529 171.25Z" fill="#32142A"/>
<path d="M85.2255 183.786C85.3059 192.625 85.2255 201.464 85.1451 210.223C85.1451 210.786 85.1451 211.429 85.0647 211.991C84.9843 212.473 84.9039 212.473 84.7431 212.473C82.8941 212.554 80.9647 212.554 79.1157 212.554C79.0353 212.554 79.0353 212.554 78.9549 212.312C78.9549 212.071 78.8745 211.75 78.8745 211.509C78.6333 202.509 78.6333 192.786 78.7941 183.705L85.2255 183.786Z" fill="#32142A"/>
<path d="M43.5824 166.83C47.0393 167.152 50.5765 167.554 53.7118 166.268C56.8471 164.982 59.6608 162.411 60.3843 159.116C61.2687 155.339 59.3392 151.241 56.0432 149.071C52.5863 146.982 48.4059 146.58 44.6275 148.027C43.5824 148.348 42.6177 148.911 41.8138 149.554C40.1255 151 39.402 153.25 39 155.42C38.5177 157.509 38.5981 159.679 39.0804 161.768C39.7236 163.937 41.251 165.625 43.3412 166.429" fill="#E48929"/>
<path d="M44.0647 173.178C46.8785 168.518 49.2902 163.616 51.3804 158.554L47.9235 158.473C47.5216 158.473 47.2 158.473 46.8785 158.634C46.6373 158.795 46.3961 159.036 46.2353 159.277C43.0196 163.857 41.3314 169.241 38.2765 173.902" fill="#32142A"/>
<path d="M13.2745 139.589C10.2196 140.714 7.56666 142.804 5.71764 145.455C1.53725 151.402 1.93921 163.616 9.97843 167.152C14.9627 169.321 23.9667 169.964 28.0667 166.348C31.5235 163.455 34.0961 159.679 35.4627 155.42" fill="#32142A"/>
<path d="M5.79807 159.277C4.4314 156.545 4.91376 153.33 5.39611 150.357C5.87846 147.384 6.84317 144.17 9.17454 142C10.3 141.036 11.6667 140.232 13.0334 139.67C18.1785 137.661 24.449 137.821 29.1118 140.714C33.7745 143.607 36.6687 149.313 35.5432 154.616C34.5785 159.196 30.8 162.893 26.3785 164.902C26.4589 164.902 10.702 169.241 5.79807 159.277Z" fill="#E48929"/>
<path d="M25.8157 145.857C25.6549 145.536 25.6549 145.134 25.7353 144.732C25.7353 144.33 25.8961 144.009 26.2177 143.768C26.3784 143.687 26.5392 143.527 26.7 143.446C27.3431 143.205 28.0667 143.205 28.6294 143.607C29.1922 143.929 29.5137 144.652 29.4333 145.295C29.2726 145.857 28.8706 146.339 28.3079 146.5C28.3079 146.5 26.3784 147.062 25.8157 145.857Z" fill="#32142A"/>
<path d="M28.951 153.813C28.8706 153.491 28.8706 153.089 28.951 152.688C28.951 152.286 29.1118 151.964 29.4333 151.723C29.5941 151.563 29.7549 151.482 29.9157 151.402C30.5588 151.161 31.2824 151.161 31.8451 151.563C32.4078 151.884 32.7294 152.607 32.649 153.25C32.4882 153.813 32.0863 154.295 31.5235 154.455C31.5235 154.536 29.5941 155.018 28.951 153.813Z" fill="#32142A"/>
<path d="M16.9726 143.446C16.8118 143.125 16.8118 142.723 16.8922 142.321C16.8922 141.92 17.0529 141.598 17.3745 141.357C17.5353 141.277 17.6961 141.116 17.8569 141.036C18.5 140.795 19.2235 140.795 19.7863 141.196C20.349 141.518 20.6706 142.241 20.5902 142.884C20.4294 143.446 20.0275 143.929 19.4647 144.089C19.4647 144.089 17.5353 144.652 16.9726 143.446Z" fill="#32142A"/>
<path d="M8.69216 147.705C8.53137 147.384 8.53137 146.982 8.61177 146.58C8.61177 146.179 8.77255 145.857 9.09412 145.616C9.2549 145.536 9.41569 145.375 9.57647 145.295C10.2196 145.054 10.9431 145.054 11.5059 145.455C12.0686 145.777 12.3902 146.5 12.3098 147.143C12.149 147.705 11.7471 148.188 11.1843 148.348C11.2647 148.348 9.3353 148.911 8.69216 147.705Z" fill="#32142A"/>
<path d="M7.4059 156.464C7.24512 156.143 7.24512 155.741 7.32551 155.339C7.32551 154.937 7.48629 154.616 7.80786 154.375C7.96865 154.295 8.12943 154.134 8.29022 154.054C8.93335 153.812 9.65688 153.812 10.2196 154.214C10.7824 154.536 11.1039 155.259 11.0235 155.902C10.8628 156.464 10.4608 156.946 9.89806 157.107C9.97845 157.107 8.04904 157.67 7.4059 156.464Z" fill="#32142A"/>
<path d="M14.4 162.411C14.2392 162.089 14.2392 161.687 14.3196 161.286C14.3196 160.884 14.4804 160.562 14.8019 160.321C14.9627 160.241 15.1235 160.08 15.2843 160C15.9274 159.759 16.651 159.759 17.2137 160.161C17.7765 160.482 18.098 161.205 18.0176 161.848C17.8568 162.411 17.4549 162.893 16.8921 163.054C16.8921 163.134 14.9627 163.616 14.4 162.411Z" fill="#32142A"/>
<path d="M23.8863 160.563C23.7255 160.241 23.7255 159.839 23.8059 159.438C23.8059 159.036 23.9666 158.714 24.2882 158.473C24.449 158.393 24.6098 158.232 24.7706 158.152C25.4137 157.911 26.1372 157.911 26.7 158.313C27.2627 158.634 27.5843 159.357 27.5039 160C27.3431 160.563 26.9412 161.045 26.3784 161.205C26.4588 161.286 24.5294 161.768 23.8863 160.563Z" fill="#32142A"/>
<path d="M53.9529 152.929C53.8725 152.687 53.8725 152.446 53.9529 152.205C53.9529 151.804 54.1941 151.482 54.5961 151.321C55.0784 151.161 55.5608 151.241 55.9627 151.482C56.3647 151.723 56.5255 152.205 56.4451 152.687C56.2843 153.089 56.0431 153.33 55.6412 153.491C55.6412 153.411 54.2745 153.732 53.9529 152.929Z" fill="#32142A"/>
<path d="M55.9628 158.473C55.8824 158.232 55.8824 157.991 55.9628 157.75C55.9628 157.509 56.1235 157.268 56.2843 157.027C56.3647 156.946 56.5255 156.866 56.6059 156.866C57.0883 156.705 57.5706 156.705 57.9726 156.946C58.3745 157.187 58.6157 157.67 58.4549 158.152C58.2941 158.554 58.053 158.795 57.651 158.955C57.7314 158.955 56.3647 159.357 55.9628 158.473Z" fill="#32142A"/>
<path d="M47.7627 151C47.6824 150.759 47.6824 150.518 47.7627 150.277C47.7627 150.036 47.9235 149.795 48.0843 149.553C48.1647 149.473 48.3255 149.393 48.4059 149.393C48.8882 149.232 49.3706 149.232 49.7726 149.473C50.1745 149.714 50.3353 150.196 50.2549 150.678C50.0941 151.08 49.8529 151.321 49.451 151.482C49.5314 151.562 48.1647 151.884 47.7627 151Z" fill="#32142A"/>
<path d="M41.9745 153.893C41.8941 153.652 41.8941 153.411 41.9745 153.17C41.9745 152.929 42.1353 152.687 42.2961 152.446C42.3765 152.366 42.5373 152.286 42.6177 152.286C43.1 152.125 43.5824 152.125 43.9843 152.366C44.3863 152.607 44.5471 153.089 44.4667 153.571C44.3059 153.973 44.0647 154.214 43.6628 154.375C43.7432 154.375 42.3765 154.696 41.9745 153.893Z" fill="#32142A"/>
<path d="M40.9294 159.92C40.7686 159.437 40.9294 158.875 41.251 158.473C41.3314 158.393 41.4922 158.312 41.5725 158.312C42.0549 158.152 42.5373 158.152 42.9392 158.393C43.3412 158.634 43.5824 159.116 43.4216 159.598C43.3412 160 43.0196 160.321 42.6176 160.482C42.698 160.482 41.3314 160.804 40.9294 159.92Z" fill="#32142A"/>
<path d="M45.6725 164.179C45.5921 163.937 45.5921 163.696 45.6725 163.455C45.6725 163.214 45.8333 162.973 45.9941 162.732C46.0745 162.652 46.2353 162.571 46.3157 162.571C46.798 162.411 47.2804 162.491 47.6823 162.652C48.0843 162.893 48.2451 163.375 48.1647 163.857C48.0039 164.259 47.7627 164.5 47.3608 164.661C47.4412 164.661 46.0745 165.062 45.6725 164.179Z" fill="#32142A"/>
<path d="M52.3451 163.054C52.2647 162.812 52.2647 162.571 52.3451 162.33C52.3451 162.089 52.5059 161.848 52.6667 161.607C52.747 161.527 52.9078 161.446 52.9882 161.446C53.4706 161.286 53.9529 161.286 54.3549 161.527C54.7569 161.768 54.9176 162.25 54.8372 162.732C54.6765 163.134 54.4353 163.375 54.0333 163.536C54.0333 163.616 52.747 163.937 52.3451 163.054Z" fill="#32142A"/>
<path d="M34.0961 173.179L21.0725 152.045C20.9118 151.643 20.5902 151.321 20.1882 151.161C19.7863 151 19.3039 151 18.9019 151.161L15.847 151.723C20.6706 158.875 24.9314 166.429 28.3882 174.304" fill="#32142A"/>
<path d="M208.869 242.929C211.924 238.107 213.451 232.402 213.21 226.696C213.21 226.696 210.476 235.696 193.996 242.125L208.869 242.929Z" fill="#307549"/>
<path d="M322.784 217.536L299.31 202.991L320.694 234.17L322.784 217.536Z" fill="#122D1C"/>
<path d="M129.361 153.33C130.406 173.018 124.618 192.464 124.376 212.152C124.296 213.196 124.457 214.321 124.778 215.286C125.663 217.375 128.235 218.259 130.567 218.58C137.561 219.545 144.635 217.455 151.308 214.964C154.363 213.839 157.578 212.473 159.508 209.902C161.437 207.33 161.839 203.714 162.08 200.42C163.286 184.429 164.573 157.75 163.849 141.679L129.361 153.33Z" fill="#FFC9A0"/>
<path d="M168.753 179.607C176.712 164.741 184.188 147.946 180.49 134.286C179.847 131.393 178.4 128.821 176.229 126.732C171.084 122.071 163.045 123.357 156.212 124.723C147.208 126.571 136.435 127.616 130.245 120.866C128.878 119.42 127.833 117.652 126.306 116.527C124.778 115.402 122.286 114.92 120.839 116.286C119.874 117.17 119.633 118.616 119.553 119.902C118.427 130.429 119.874 141.518 125.663 150.357C131.451 159.196 142.063 165.304 152.514 163.777C153.639 163.616 154.925 163.455 155.649 164.259C155.971 164.661 156.131 165.063 156.292 165.545L160.553 179.607H168.753Z" fill="#32142A"/>
<path d="M158.543 174.143C162.402 171.33 167.869 172.134 170.763 176.071C172.853 178.884 173.014 182.661 171.245 185.634C168.673 189.973 162.884 191.259 157.82 191.179L158.543 174.143Z" fill="#FFC9A0"/>
<path d="M175.425 165.946C155.327 166.589 129.441 152.607 129.441 152.607C129.522 155.58 129.361 160.161 129.361 163.054C142.947 164.661 159.347 172.054 173.014 171.25C173.014 171.25 174.3 168.759 175.425 165.946Z" fill="#39B55D"/>
<path d="M124.376 147.786C126.788 153.571 131.933 157.991 137.722 160.482C143.51 162.973 149.861 163.777 156.212 164.018C157.659 164.098 159.106 164.018 160.553 163.857C162.482 163.375 164.412 162.652 166.18 161.687L124.376 147.786Z" fill="#32142A"/>
<path d="M349.475 234.089L352.931 236.098L349.475 175.107L348.429 174.062L349.475 234.089Z" fill="#EFB086"/>
<path d="M275.755 271.536L275.996 274.268L316.353 273.705L316.674 270.732L275.755 271.536Z" fill="#EFB086"/>
<path d="M152.031 200.821C160.071 202.107 173.094 203.312 181.133 204.598C187.404 205.562 193.835 206.607 199.543 209.259C205.251 211.911 210.557 216.491 212.486 222.518C213.129 224.366 213.29 226.375 213.049 228.304C212.084 234.25 206.055 237.786 200.508 240.116C184.992 246.705 168.512 250.482 151.71 251.366L152.031 200.821Z" fill="#39B55D"/>
<path d="M163.206 251.366C162.482 234.089 162.884 216.812 164.492 199.536C164.492 198.25 163.367 197.125 162.08 197.125C160.714 197.125 159.669 198.25 159.588 199.536C157.98 216.732 157.578 234.089 158.302 251.366C158.463 254.5 163.367 254.5 163.206 251.366Z" fill="#153A23"/>
<path d="M162.161 213.116C168.592 212.714 175.104 212.714 181.535 213.116C188.449 213.679 197.131 216.411 203.804 218.339C206.778 219.062 209.592 220.268 212.165 221.714C214.898 223.321 217.31 219.143 214.657 217.455C209.271 214.241 202.759 212.714 196.649 211.67C189.173 210.384 181.696 209.741 174.139 209.58C170.361 209.5 166.582 209.5 162.804 209.741C159.669 209.902 159.669 214.804 162.804 214.643L162.161 213.116Z" fill="#153A23"/>
<path d="M161.759 229.107C198.337 227.58 213.21 226.696 217.631 228.062C218.918 228.464 220.043 227.018 220.043 225.652C220.043 224.366 218.918 223 217.631 223.241C198.337 226.134 180.41 224.929 161.759 224.286C158.624 224.205 158.624 229.107 161.759 229.107Z" fill="#153A23"/>
<path d="M161.678 242.527C175.988 243.17 190.78 243.491 204.849 240.357C208.467 239.554 212.004 238.429 215.461 236.902C216.586 236.179 216.988 234.732 216.345 233.527C215.622 232.402 214.175 232 212.969 232.643C207.261 235.214 200.829 236.339 194.639 237.063C187.484 237.866 181.535 239.634 174.3 239.554C170.522 239.473 164.733 239.152 160.955 238.991C157.9 238.911 158.543 242.366 161.678 242.527Z" fill="#153A23"/>
<path d="M126.869 217.455L152.031 209.982V214.884L126.869 217.455Z" fill="#EFB086"/>
<path d="M162.724 190.777C162.724 190.777 159.829 190.857 158.624 190.375L162.563 192.786L162.724 190.777Z" fill="#EFB086"/>
<path d="M160.231 188.045C162.241 188.286 164.251 187.804 165.939 186.759C167.386 185.875 168.271 184.348 168.512 182.661C168.753 181.054 168.592 179.366 167.869 177.839C167.225 176.473 166.02 175.589 164.573 175.268C162.884 174.946 161.035 175.188 159.508 175.991C159.106 176.232 158.945 176.795 159.186 177.196C159.427 177.598 159.91 177.759 160.312 177.518C162.08 176.714 165.055 176.393 166.18 178.402C166.743 179.527 166.984 180.813 166.824 182.018C166.824 183.223 166.261 184.348 165.376 185.152C163.849 186.196 162 186.679 160.231 186.438C159.749 186.438 159.347 186.839 159.347 187.321C159.347 187.643 159.749 187.964 160.231 188.045Z" fill="#32142A"/>
<path d="M160.633 184.429C161.276 184.429 162 184.348 162.563 184.027C163.206 183.705 163.608 183.223 163.849 182.5C164.171 181.777 164.171 181.054 163.849 180.33C163.608 179.848 163.125 179.366 162.643 179.205C161.92 178.884 161.196 178.804 160.473 178.804C159.99 178.804 159.588 179.205 159.588 179.688C159.588 180.17 159.99 180.571 160.473 180.571H160.955H161.196C161.276 180.571 161.357 180.571 161.276 180.571C161.437 180.571 161.598 180.652 161.759 180.652L161.92 180.732H161.839H161.92C162 180.732 162.08 180.813 162.08 180.813H162.161H162.08L162.322 181.054C162.241 180.973 162.241 180.973 162.322 180.973L162.402 181.054V181.134C162.482 181.214 162.402 181.214 162.402 181.054C162.402 181.134 162.402 181.134 162.482 181.214C162.482 181.295 162.482 181.295 162.482 181.214V181.295C162.482 181.375 162.482 181.616 162.482 181.375C162.482 181.455 162.482 181.536 162.402 181.616C162.322 181.777 162.322 181.938 162.241 182.018V181.938L162.161 182.018C162.161 182.098 162.08 182.179 162.08 182.179C162.161 182.098 162.161 182.098 162.161 182.098L162.08 182.179L162 182.259C162.08 182.179 162.08 182.179 162.08 182.259L161.92 182.339H161.839C161.759 182.42 161.518 182.42 161.437 182.42C161.357 182.42 161.116 182.5 161.357 182.42C161.276 182.42 161.196 182.42 161.116 182.42H160.633C160.151 182.5 159.829 182.902 159.829 183.384C159.91 184.027 160.231 184.348 160.633 184.429Z" fill="#32142A"/>
<path d="M128.155 176.875C126.949 177.759 123.171 186.598 122.527 193.027C122.447 194.152 123.251 195.196 124.457 195.277C126.386 195.437 128.235 195.437 130.165 195.277C130.406 195.277 130.647 195.196 130.888 195.116C131.129 194.795 131.29 194.473 131.21 194.071L128.155 176.875Z" fill="#E48929"/>
<path d="M258.551 58.4286L250.673 64.9375H256.3L258.551 58.4286Z" fill="#EFB086"/>
<path d="M393.931 166.027L421.104 178.482C421.104 178.482 429.223 148.911 433.002 123.036L419.094 119.339L393.931 166.027Z" fill="#39B55D"/>
<path d="M415.476 127.295C419.014 121.027 428.741 126.973 430.751 129.705C432.841 132.518 435.896 127.616 438.308 125.125C441.122 122.152 451.492 119.339 458.727 117.652C463.229 116.607 467.731 115.402 472.314 114.518C475.449 113.875 481.72 113.554 483.327 111.705C488.553 105.839 476.735 104.955 473.52 104.875C462.908 104.473 452.296 104.714 441.684 104.473C433.404 104.313 419.175 104.152 416.682 106.241C412.1 110.179 410.974 119.902 410.09 125.446C409.125 131.554 412.341 132.839 415.476 127.295Z" fill="#153A23"/>
<path d="M398.835 167.554C399.639 165.062 400.684 162.732 401.971 160.402C402.292 159.839 402.131 159.036 401.569 158.714C401.006 158.393 400.202 158.554 399.88 159.116C398.594 161.607 397.469 164.179 396.584 166.83C396.423 167.473 396.825 168.116 397.469 168.357C397.951 168.598 398.594 168.196 398.835 167.554Z" fill="#227B3D"/>
<path d="M403.739 170.125C404.382 167.473 405.508 164.902 407.035 162.652C407.357 162.089 407.196 161.286 406.553 160.964C405.99 160.643 405.186 160.804 404.865 161.446C403.176 163.857 401.971 166.589 401.327 169.482C401.167 170.125 401.569 170.768 402.212 171.009C402.855 171.17 403.578 170.768 403.739 170.125Z" fill="#227B3D"/>
<path d="M409.206 172.134C409.206 171.973 409.206 171.973 409.206 172.134C409.206 171.973 409.206 171.893 409.206 171.812C409.206 171.732 409.286 171.491 409.286 171.33C409.367 171.009 409.367 170.768 409.447 170.446C409.608 169.804 409.769 169.241 410.01 168.598C410.171 168.036 410.412 167.473 410.733 166.991C411.055 166.429 411.376 165.866 411.698 165.304C412.02 164.741 411.859 163.937 411.296 163.616C410.733 163.295 410.01 163.455 409.608 164.098C408 166.509 407.035 169.241 406.714 172.134C406.714 172.777 407.276 173.339 407.92 173.339C408.563 173.339 409.126 172.777 409.206 172.134Z" fill="#227B3D"/>
<path d="M414.11 175.268C414.351 172.857 414.914 170.446 415.798 168.116C415.959 167.473 415.557 166.83 414.914 166.589C414.271 166.429 413.627 166.83 413.386 167.473C412.422 169.964 411.778 172.616 411.618 175.268C411.618 175.911 412.18 176.473 412.824 176.473C413.547 176.473 414.11 175.991 414.11 175.268Z" fill="#227B3D"/>
<path d="M418.049 177.598L421.024 170.205C421.184 169.562 420.782 168.92 420.139 168.679C419.496 168.518 418.853 168.92 418.612 169.562L415.637 176.955C415.476 177.598 415.878 178.241 416.522 178.482C417.165 178.562 417.888 178.241 418.049 177.598Z" fill="#227B3D"/>
<path d="M306.786 354.705C304.535 373.509 303.088 386.768 300.837 402.92L283.875 404.527C282.91 383.312 282.026 369.973 281.463 354.303L306.786 354.705Z" fill="#39B55D"/>
<path d="M301.32 398.58C300.676 403.241 300.435 407.902 299.792 412.563C299.229 416.821 294.325 416.5 291.11 416.661C282.508 417.143 276.88 417.304 270.047 417.304C265.625 417.464 261.204 417.545 256.782 417.625C254.531 417.625 252.361 417.625 250.11 417.625C248.663 417.625 245.447 417.786 244.402 417.304C241.749 416.018 241.829 410.473 244.804 409.429C249.949 407.661 255.978 407.902 261.365 407.098C267.073 406.375 272.62 404.929 278.006 402.92C280.9 401.795 283.874 400.348 286.929 400.67C288.939 400.911 290.788 401.875 292.718 402.116C294.406 402.357 296.416 401.795 297.3 400.429C297.702 399.705 298.184 399.143 298.747 398.58C300.033 397.455 301.641 396.33 301.32 398.58Z" fill="#153A23"/>
<path d="M284.598 362.42C284.357 359.687 284.357 357.036 284.598 354.304C284.598 353.661 284.035 353.098 283.392 353.098C282.749 353.098 282.186 353.661 282.186 354.304C281.945 357.036 282.025 359.687 282.186 362.42C282.106 363.062 282.508 363.705 283.231 363.786C283.875 363.866 284.518 363.464 284.598 362.741C284.598 362.741 284.598 362.58 284.598 362.42Z" fill="#227B3D"/>
<path d="M290.145 362.5C289.663 359.929 289.663 357.277 290.145 354.625C290.306 353.982 289.904 353.339 289.261 353.098C288.618 352.937 287.975 353.339 287.733 353.982C287.171 357.036 287.171 360.089 287.733 363.143C287.894 363.786 288.618 364.187 289.261 364.027C289.904 363.866 290.306 363.223 290.145 362.5Z" fill="#227B3D"/>
<path d="M295.933 362.5C295.21 360.17 295.049 357.679 295.451 355.268C295.612 354.625 295.21 353.982 294.567 353.741C293.924 353.58 293.28 353.982 293.039 354.625C292.557 357.437 292.718 360.411 293.522 363.143C293.682 363.786 294.406 364.187 295.049 364.027C295.692 363.866 296.175 363.143 295.933 362.5Z" fill="#227B3D"/>
<path d="M301.802 363.384C300.998 361.054 300.516 358.643 300.435 356.152C300.516 355.509 300.114 354.866 299.39 354.786C298.747 354.705 298.104 355.107 298.024 355.83C298.024 355.991 298.024 356.071 298.024 356.232C298.104 358.884 298.586 361.536 299.471 364.107C299.631 364.75 300.355 365.152 300.998 364.991C301.641 364.83 301.963 364.027 301.802 363.384Z" fill="#227B3D"/>
<path d="M306.223 363.946L305.982 355.991C306.063 355.348 305.661 354.705 304.937 354.625C304.294 354.545 303.651 354.946 303.571 355.67C303.571 355.83 303.571 355.911 303.571 356.071L303.812 364.027C303.731 364.67 304.133 365.313 304.857 365.393C305.5 365.473 306.143 365.071 306.223 364.348C306.223 364.188 306.223 364.027 306.223 363.946Z" fill="#227B3D"/>
<path d="M273.504 172.777C282.186 170.205 290.708 168.196 299.551 167.955C310.565 167.634 321.418 170.446 330.824 176.071C337.737 180.411 344.008 185.795 349.233 192.063C350.198 193.027 351.726 193.027 352.69 192.063C353.655 191.098 353.655 189.571 352.69 188.607C343.526 178 332.029 169.321 318.524 165.384C308.073 162.411 297.22 162.491 286.608 164.42C281.784 165.384 276.961 166.589 272.218 168.036C269.243 169 270.529 173.741 273.504 172.777Z" fill="#307549"/>
<path d="M459.049 101.741C446.267 106.482 430.751 104.473 419.496 91.6965C412.743 83.9822 410.975 73.7768 412.904 63.8929C418.773 33.9197 462.747 26.3661 477.861 53.6072C489.759 75.2232 477.057 95.0715 459.049 101.741Z" fill="#BBD1CE"/>
<path d="M140.375 173.018H141.098L141.5 173.098C141.822 173.098 141.42 173.098 141.339 173.098C141.822 173.259 142.304 173.259 142.786 173.42C143.269 173.58 143.671 173.741 144.073 173.902C144.394 173.982 143.59 173.661 143.992 173.821L144.314 173.982C144.555 174.063 144.796 174.223 145.037 174.304C145.439 174.545 145.841 174.786 146.243 175.027L146.484 175.188C146.886 175.509 146.163 174.946 146.404 175.107C146.645 175.268 146.726 175.429 146.967 175.589C147.369 175.911 147.69 176.232 148.012 176.634L148.173 176.875C148.414 177.196 148.253 176.955 148.092 176.795C148.253 177.036 148.414 177.196 148.575 177.438C149.218 178.563 150.745 178.964 151.951 178.321C153.157 177.679 153.478 176.152 152.835 174.946C150.102 170.848 145.52 168.277 140.535 168.116C139.169 168.116 138.124 169.241 138.043 170.607C138.043 171.893 139.088 172.938 140.375 173.018Z" fill="#32142A"/>
<path d="M140.053 178.964C139.973 179.045 139.973 179.125 139.892 179.205C139.41 180.25 138.365 182.902 139.169 183.946C139.973 184.991 141.5 184.67 142.384 183.786C143.671 182.339 143.671 180.17 142.384 178.723C141.982 178.241 141.339 178 140.696 178.241C140.455 178.482 140.214 178.723 140.053 178.964Z" fill="#32142A"/>
<path d="M143.269 190.134C145.278 188.848 146.886 186.92 147.771 184.67C147.931 184.188 147.61 183.786 147.208 183.625C146.726 183.545 146.324 183.786 146.163 184.188L146.082 184.268L146.002 184.348L145.841 184.67C145.761 184.911 145.6 185.152 145.439 185.393C145.278 185.634 145.198 185.875 145.037 186.036L144.796 186.357C144.877 186.196 144.716 186.438 144.716 186.438L144.635 186.598C144.314 187 143.912 187.402 143.51 187.723L143.188 187.964L143.027 188.125C143.108 188.045 143.028 188.125 142.947 188.125C142.706 188.286 142.545 188.446 142.304 188.607C141.902 188.848 141.661 189.33 141.902 189.732C142.143 190.134 142.626 190.375 143.027 190.134C143.188 190.134 143.188 190.054 143.269 190.134Z" fill="#32142A"/>
<path d="M146.565 191.741C147.61 191.098 148.575 190.295 149.298 189.33C149.459 189.17 149.459 188.929 149.378 188.687C149.298 188.446 149.137 188.286 148.977 188.205C148.816 188.125 148.575 188.045 148.333 188.125C148.092 188.205 147.931 188.366 147.851 188.527L147.771 188.687L147.931 188.527C147.529 189.009 147.047 189.491 146.565 189.893L146.726 189.732C146.404 189.973 146.082 190.214 145.761 190.375C145.359 190.616 145.198 191.179 145.439 191.58C145.6 191.902 146.163 192.062 146.565 191.741Z" fill="#32142A"/>
<path d="M460.657 79.3214C455.431 81.4107 450.849 83.9821 445.704 86.0714C441.523 81.9732 436.459 79.5625 432.278 75.3839C432.52 76.1875 432.037 74.5803 432.278 75.3839C433.404 70.0803 434.69 64.6161 435.816 59.2321C440.8 58.0268 444.82 56.5 449.804 55.4553L449.161 55.375C453.743 58.75 458.004 60.5982 462.506 63.9732C462.104 63.0893 462.908 64.9375 462.506 63.9732C461.702 68.9553 461.461 74.3393 460.657 79.3214C460.416 80.6071 458.727 81.7321 460.094 82.0536C461.3 82.375 462.908 81.6518 463.149 80.3661L465.48 65.5803C465.722 64.5357 465.239 63.4107 464.355 62.8482L456.878 57.3036L452.135 53.7678C451.733 53.4464 451.331 53.125 450.929 52.8839C449.724 52.0803 448.196 52.6428 446.91 52.9643C442.649 54.0089 438.469 55.6161 434.208 56.6607C433.404 56.9018 432.68 57.5446 432.52 58.3482L430.51 68.2321L429.384 73.5357C429.223 74.0178 429.143 74.5 429.143 74.9821C429.143 76.9107 431.876 78.5982 433.243 79.6428C436.62 82.2946 440.318 84.7053 443.453 87.7589C444.096 88.4018 444.98 88.6428 445.865 88.4018L461.541 82.1339C462.827 81.7321 463.551 80.4464 463.229 79.0803C462.827 77.875 461.863 78.8393 460.657 79.3214Z" fill="#153A23"/>
<path d="M460.094 81.0893C460.335 81.1696 460.978 81.491 460.094 81.0893L460.657 81.3303C463.39 82.6964 465.963 84.5446 468.696 85.991C469.822 86.6339 471.028 87.1964 472.233 87.5982C472.877 87.8393 477.7 88.4018 476.012 87.1964C474.484 86.1518 471.188 84.3035 469.259 83.0178C466.686 81.3303 464.194 79.4018 461.863 77.3928C464.837 79.9643 461.461 79.9642 459.773 80.9285C459.933 81.0089 460.014 81.0893 460.094 81.0893Z" fill="#153A23"/>
<path d="M441.122 100.214C442.649 95.5535 444.82 91.2946 446.508 86.7143C446.99 85.5089 445.945 87.2768 444.739 87.0357C443.373 86.7143 443.212 85.1071 442.729 86.3928C441.041 90.9732 440.398 94.8303 438.871 99.4911C438.469 100.696 438.067 101.902 439.273 102.223C440.478 102.545 440.318 102.062 440.72 100.777L441.122 100.214Z" fill="#153A23"/>
<path d="M430.831 73.2142C429.947 73.3749 429.143 73.616 428.259 74.0178C426.49 74.5803 424.722 74.9017 422.873 74.9821C421.586 75.1428 420.3 75.3035 419.014 75.4642C418.129 75.5446 416.602 75.9464 415.718 76.1071C414.833 76.2678 413.949 76.5892 415.316 77.3928C415.718 77.5535 416.12 77.6339 416.522 77.5535C419.255 77.5535 421.988 77.5535 424.722 77.7946C427.375 78.116 430.108 78.116 432.841 77.7946C434.128 77.6339 430.912 76.1071 430.59 75.2232C430.269 74.3392 432.198 72.9732 430.831 73.2142Z" fill="#153A23"/>
<path d="M435.414 56.5804C435.253 56.5 435.092 57.0625 434.931 56.9822C434.931 56.9822 435.494 56.6608 435.253 56.5C435.173 56.5 435.092 57.0625 434.931 56.9822C434.529 56.8215 434.208 56.6608 433.806 56.4197C432.118 55.5358 430.51 54.4911 428.822 53.6072C427.133 52.7233 425.606 51.9197 423.998 51.1161C423.355 50.7947 420.943 49.509 420.782 50.3125C420.782 50.9554 421.023 51.5983 421.506 52C422.792 53.2054 424.239 54.4108 425.686 55.4554C427.053 56.6608 428.58 57.7054 430.108 58.75C431.796 59.7947 432.198 60.6786 434.047 61.3215C435.253 61.7233 432.922 60.5179 433.243 59.3125C433.645 57.9465 436.7 57.0625 435.414 56.5804Z" fill="#153A23"/>
<path d="M451.171 55.1339C451.814 54.0089 452.376 53.6071 452.618 52.4018C453.261 49.9107 454.225 47.5803 455.351 45.25C456.155 43.7232 456.878 42.1161 457.602 40.4286C457.763 39.8661 458.084 38.9018 457.602 38.4196C457.28 38.0982 456.637 38.2589 456.316 38.5C455.672 38.9821 455.19 39.625 454.869 40.3482C453.582 42.5982 452.216 44.8482 451.01 47.1786C450.447 48.3036 449.965 49.4286 449.322 50.4732C448.678 51.5178 448.035 52.5625 447.392 53.6071C446.749 54.6518 448.518 53.2053 449.723 53.8482C450.929 54.4911 450.447 56.2589 451.171 55.1339Z" fill="#153A23"/>
<path d="M464.355 67.0268C467.49 65.4197 470.706 63.8929 473.922 62.4465L473.6 62.6072C474.967 62.2054 479.871 59.5536 479.227 58.3482C478.906 57.7054 475.047 58.8304 474.002 59.3125C472.957 59.7947 469.661 60.759 468.455 61.1607C466.284 61.8036 463.953 61.8036 461.943 62.8482C460.818 63.4107 462.747 63.5715 463.39 64.6965C464.033 65.8215 463.149 67.6697 464.355 67.0268Z" fill="#153A23"/>
<path d="M425.043 107.446L425.124 104.071L423.355 106.402C425.525 106.08 427.776 105.679 429.947 105.277L429.304 105.357C429.465 105.357 429.545 105.357 429.706 105.357L429.063 105.277C429.465 105.357 429.224 105.196 428.42 104.875C428.259 104.714 428.178 104.554 428.098 104.393C427.937 103.991 428.098 104.393 428.098 104.473C428.178 104.795 428.259 105.116 428.339 105.438L428.741 107.527C429.143 108.813 430.429 109.616 431.716 109.214C433.002 108.813 433.725 107.527 433.404 106.161C433.163 105.116 433.002 104.071 432.761 103.027C432.6 102.223 432.118 101.58 431.555 101.098C430.671 100.455 429.625 100.295 428.58 100.536C426.41 100.857 424.239 101.259 422.069 101.58C421.586 101.741 421.104 101.982 420.782 102.464C420.461 102.866 420.3 103.429 420.22 103.991L420.139 107.366C420.139 108.652 421.265 109.777 422.551 109.777C423.918 109.777 424.963 108.732 425.043 107.446Z" fill="#153A23"/>
<path d="M464.274 103.75C464.194 103.75 464.194 103.67 464.114 103.67L464.516 104.152C464.516 104.071 464.435 104.071 464.435 103.991L464.676 104.554C464.676 104.473 464.676 104.473 464.596 104.393L464.676 105.036C464.676 104.955 464.676 104.875 464.676 104.795L464.596 105.437C464.596 105.357 464.676 105.277 464.676 105.196L464.435 105.759C464.435 105.679 464.516 105.679 464.516 105.598L464.114 106.08C464.194 106 464.274 105.92 464.274 105.92L463.792 106.321C463.873 106.241 464.033 106.161 464.114 106.161L463.551 106.402C463.712 106.321 463.873 106.321 464.033 106.321L463.39 106.402C464.194 106.321 464.998 106.321 465.882 106.321C466.686 106.321 467.41 106.321 468.214 106.402L467.571 106.321C467.812 106.402 468.133 106.402 468.374 106.562L467.812 106.321C467.973 106.402 468.133 106.482 468.294 106.643L467.812 106.241C467.973 106.321 468.053 106.482 468.133 106.562L467.731 106.08C467.812 106.241 467.892 106.402 467.973 106.562L467.731 106C467.812 106.161 467.812 106.241 467.812 106.402L467.731 105.759C467.731 105.92 467.731 106 467.731 106.161L467.812 105.518C467.812 105.598 467.812 105.679 467.731 105.759L467.973 105.196C467.973 105.277 467.892 105.357 467.812 105.437C467.169 106.643 467.49 108.089 468.696 108.812C469.902 109.455 471.349 109.054 472.073 107.929C473.037 106.321 472.716 104.232 471.269 102.946C469.982 101.741 468.294 101.58 466.606 101.58H464.516C463.712 101.58 462.988 101.661 462.184 101.821C461.059 102.143 460.094 103.107 459.773 104.232C459.451 105.357 459.772 106.643 460.657 107.446C461.139 107.848 461.702 108.17 462.425 108.17C463.712 108.17 464.837 107.045 464.837 105.759C464.837 105.116 464.596 104.473 464.114 104.071L464.274 103.75Z" fill="#153A23"/>
<path d="M251.718 414.571C249.949 416.018 250.592 419.071 252.522 420.116C254.129 421.08 255.978 420.679 257.667 420.518L259.998 420.277C260.882 420.277 261.767 420.116 262.651 419.955C264.098 419.554 265.063 418.348 265.063 416.902C265.063 416.179 265.063 415.375 265.063 414.652C265.063 413.286 263.937 412.241 262.651 412.241C261.284 412.241 260.239 413.366 260.239 414.652V416.259C260.239 416.42 260.239 416.58 260.239 416.661C260.239 416.982 260.239 416.58 260.32 416.42L261.124 415.375C261.526 415.214 261.606 415.214 261.445 415.214C261.284 415.214 262.088 415.134 261.686 415.214C260.561 415.295 259.355 415.455 258.229 415.536C257.184 415.696 256.059 415.777 255.014 415.857C254.933 415.857 254.853 415.857 254.692 415.857C255.094 415.938 255.175 415.938 255.014 415.857H254.853C254.612 415.857 255.255 416.179 254.933 415.937C254.933 415.937 255.416 416.339 255.175 416.098C255.416 416.42 255.496 416.5 255.416 416.339C255.335 416.259 255.416 416.259 255.496 416.5C255.576 416.741 255.576 416.741 255.576 416.661C255.576 416.58 255.576 416.58 255.576 417.063C255.576 416.741 255.496 417.384 255.496 417.384C255.416 417.625 255.335 417.786 255.175 417.946C255.014 418.107 255.014 418.188 255.094 418.027C256.059 417.063 256.059 415.536 255.094 414.571C254.21 413.688 252.682 413.688 251.718 414.571Z" fill="#153A23"/>
<path d="M286.688 419.473H291.351C291.833 419.473 292.396 419.473 292.878 419.312C293.763 419.071 294.486 418.429 294.808 417.625C295.049 416.661 295.129 415.616 295.049 414.571C295.049 413.928 294.808 413.286 294.326 412.803C293.441 411.839 291.914 411.759 290.949 412.723C290.467 413.205 290.145 413.848 290.226 414.571C290.226 415.214 290.226 415.857 290.226 416.5L290.306 415.857C290.306 415.937 290.306 415.937 290.306 416.018L290.547 415.455V415.536L290.949 415.053C290.949 415.134 290.869 415.134 290.869 415.134L291.351 414.732C291.351 414.732 291.271 414.812 291.19 414.812L291.753 414.571C291.673 414.571 291.592 414.571 291.512 414.652L292.155 414.571C291.271 414.652 290.386 414.571 289.502 414.571H286.769C286.126 414.571 285.482 414.812 285.08 415.295C284.598 415.777 284.357 416.339 284.357 417.062C284.357 418.268 285.402 419.393 286.688 419.473Z" fill="#153A23"/>
<path d="M285 406.536C287.412 408.304 289.824 410.393 292.155 412.402C292.637 412.884 293.441 412.884 293.924 412.402C294.406 411.92 294.406 411.116 293.924 410.634C291.431 408.464 288.859 406.375 286.286 404.366C285.724 404.045 284.92 404.205 284.598 404.768C284.276 405.411 284.437 406.134 285 406.536Z" fill="#227B3D"/>
<path d="M279.855 409.107C281.784 410.875 283.875 412.482 286.045 414.009C286.608 414.33 287.412 414.17 287.733 413.607C288.055 413.045 287.894 412.321 287.331 411.92C286.849 411.598 286.286 411.196 285.804 410.875C285.563 410.714 285.322 410.473 285.08 410.312L285 410.232L284.92 410.152L284.518 409.83C283.553 409.027 282.588 408.223 281.704 407.42C281.222 406.937 280.418 406.937 280.016 407.42C279.614 407.902 279.373 408.625 279.855 409.107Z" fill="#227B3D"/>
<path d="M423.274 111.705L428.822 123.116C429.143 123.679 429.947 123.92 430.51 123.598C431.073 123.277 431.314 122.473 430.912 121.911L425.365 110.58C425.043 110.018 424.239 109.777 423.676 110.179C423.114 110.42 422.953 111.143 423.274 111.705Z" fill="#227B3D"/>
<path d="M429.384 109.696C430.027 111.384 430.831 112.991 431.716 114.518C432.68 116.286 433.645 117.973 434.449 119.821C434.771 120.384 435.574 120.625 436.137 120.223C436.7 119.902 436.941 119.098 436.539 118.536C435.735 116.768 434.771 115.08 433.886 113.393C433.484 112.589 433.002 111.786 432.6 110.902C432.439 110.5 432.198 110.098 432.037 109.777L431.957 109.536C431.796 109.214 432.037 109.616 431.957 109.455C431.876 109.295 431.796 109.134 431.796 108.973C431.635 108.33 430.912 107.929 430.269 108.089C429.625 108.33 429.223 109.054 429.384 109.696Z" fill="#227B3D"/>
<path d="M266.027 36.8125C272.459 29.2589 279.533 22.1875 287.01 15.6786C288.216 14.6339 286.447 12.9464 285.322 13.9911C277.765 20.5 270.771 27.6518 264.339 35.2053C263.294 36.3303 264.982 38.0982 266.027 36.8125Z" fill="#EFB086"/>
<path d="M271.173 39.4643C276.639 34.0804 281.865 28.375 287.573 23.3125C288.778 22.2679 287.01 20.5 285.804 21.625C280.096 26.7679 274.871 32.3929 269.404 37.8572C268.278 38.8214 270.047 40.5893 271.173 39.4643Z" fill="#EFB086"/>
<path d="M87.4765 289.295C83.7785 292.83 84.6628 300.223 91.0137 298.455C100.339 295.804 93.8275 283.268 87.4765 289.295Z" fill="white"/>
<path d="M114.81 79.8838C112.961 81.6517 113.443 85.3481 116.578 84.4642C121.322 83.1785 118.026 76.9106 114.81 79.8838Z" fill="white"/>
<path d="M272.298 109.616C273.343 105.839 274.71 102.143 276.318 98.5267C276.559 97.9642 277.122 97.3214 277.604 97.5625C278.086 97.8035 278.086 98.5267 277.925 99.0089C277.122 102.384 276.318 105.839 275.514 109.214C278.729 108.893 281.865 109.375 284.839 110.661C285.08 110.741 285.241 111.062 285.08 111.304C285.08 111.384 285 111.464 284.92 111.545C283.151 112.67 281.061 113.232 278.971 113.152C278.247 113.071 277.363 112.991 276.8 113.554C276.478 113.955 276.318 114.357 276.237 114.839C275.514 117.812 274.469 120.625 273.022 123.277C272.861 123.518 272.539 123.679 272.218 123.518C272.057 123.437 271.976 123.277 271.976 123.116C271.414 120.464 272.539 117.491 272.459 114.679C272.459 114.357 272.378 114.036 272.218 113.795C271.976 113.473 271.574 113.312 271.173 113.312C268.198 112.67 265.224 111.786 262.41 110.661C261.606 110.339 260.722 109.536 261.284 108.893C261.445 108.732 261.686 108.652 262.008 108.571C263.776 108.25 265.625 108.25 267.394 108.571L272.298 109.616Z" fill="white"/>
<path d="M298.988 76.0267C296.094 78.7589 296.818 84.5446 301.802 83.1785C309.118 81.0892 303.973 71.366 298.988 76.0267Z" fill="white"/>
<path d="M360.488 356.071C356.79 359.607 357.675 367 364.026 365.232C373.431 362.58 366.839 350.045 360.488 356.071Z" fill="white"/>
<path d="M374.396 322.321C372.547 324.089 373.029 327.786 376.165 326.902C380.908 325.616 377.612 319.348 374.396 322.321Z" fill="white"/>
<path d="M408.643 328.027C406.955 323.205 405.669 318.304 404.704 313.321C404.543 312.518 404.624 311.473 405.427 311.312C406.231 311.152 406.633 311.955 406.875 312.679C408.482 316.857 410.171 321.116 411.778 325.295C414.914 322.643 418.692 320.795 422.712 319.911C423.033 319.83 423.435 320.071 423.435 320.393C423.435 320.554 423.435 320.634 423.355 320.795C422.31 323.286 420.541 325.375 418.21 326.821C417.406 327.304 416.441 327.866 416.2 328.83C416.12 329.473 416.28 330.116 416.522 330.679C417.969 334.295 418.853 338.152 419.335 342.009C419.335 342.411 419.094 342.813 418.692 342.813C418.451 342.813 418.29 342.732 418.129 342.652C415.557 340.321 414.592 336.223 412.502 333.33C412.261 333.009 411.939 332.688 411.618 332.527C411.135 332.446 410.573 332.527 410.171 332.768C406.553 334.214 402.775 335.5 398.916 336.384C397.871 336.625 396.263 336.384 396.424 335.339C396.504 335.018 396.665 334.777 396.906 334.536C398.514 332.848 400.443 331.563 402.614 330.598L408.643 328.027Z" fill="white"/>
<path d="M427.776 293.312C425.927 295.08 426.41 298.777 429.545 297.893C434.288 296.527 430.992 290.339 427.776 293.312Z" fill="white"/>
</svg>
